<svg width="20" height="20" viewBox="0 0 20 20" fill="none" xmlns="http://www.w3.org/2000/svg">
<g id="vuesax/linear/eye-slash">
<g id="eye-slash">
<path id="Vector" d="M12.1073 7.8916L7.89063 12.1083C7.34896 11.5666 7.01562 10.8249 7.01562 9.99993C7.01562 8.34993 8.34896 7.0166 9.99896 7.0166C10.824 7.0166 11.5656 7.34994 12.1073 7.8916Z" stroke="#464646" stroke-width="1.25" stroke-linecap="round" stroke-linejoin="round"/>
<path id="Vector_2" d="M14.8499 4.8084C13.3915 3.7084 11.7249 3.1084 9.99987 3.1084C7.0582 3.1084 4.31654 4.84173 2.4082 7.84173C1.6582 9.01673 1.6582 10.9917 2.4082 12.1667C3.06654 13.2001 3.8332 14.0917 4.66654 14.8084" stroke="#464646" stroke-width="1.25" stroke-linecap="round" stroke-linejoin="round"/>
<path id="Vector_3" d="M7.01562 16.2751C7.96563 16.6751 8.97396 16.8917 9.99896 16.8917C12.9406 16.8917 15.6823 15.1584 17.5906 12.1584C18.3406 10.9834 18.3406 9.0084 17.5906 7.8334C17.3156 7.40006 17.0156 6.99173 16.7073 6.6084" stroke="#464646" stroke-width="1.25" stroke-linecap="round" stroke-linejoin="round"/>
<path id="Vector_4" d="M12.9242 10.5835C12.7076 11.7585 11.7492 12.7168 10.5742 12.9335" stroke="#464646" stroke-width="1.25" stroke-linecap="round" stroke-linejoin="round"/>
<path id="Vector_5" d="M7.89102 12.1084L1.66602 18.3334" stroke="#464646" stroke-width="1.25" stroke-linecap="round" stroke-linejoin="round"/>
<path id="Vector_6" d="M18.3324 1.66675L12.1074 7.89175" stroke="#464646" stroke-width="1.25" stroke-linecap="round" stroke-linejoin="round"/>
</g>
</g>
</svg>
