<svg width="24" height="24" viewBox="0 0 24 24" fill="none" xmlns="http://www.w3.org/2000/svg">
<path d="M8.3418 14.5898C8.80764 14.0902 9.37089 13.6914 9.99682 13.418C10.6227 13.1445 11.2986 13.0024 11.9816 13C12.6647 12.9976 13.3409 13.1353 13.9687 13.4044C14.5965 13.6734 15.1627 14.0682 15.6321 14.5645M6.14844 11.5439C6.89214 10.7464 7.79105 10.1093 8.78994 9.67188C9.78882 9.23441 10.8668 9.00575 11.9573 9M3.22266 8.81649C4.3408 7.61743 5.69279 6.66021 7.1952 6.00391C8.69761 5.3476 10.3188 5.00558 11.9583 5M15.999 8.99997L17.999 6.99998M17.999 6.99998L19.999 5M17.999 6.99998L15.999 5M17.999 6.99998L19.999 8.99997M11.999 19C11.4467 19 10.999 18.5523 10.999 18C10.999 17.4477 11.4467 17 11.999 17C12.5513 17 12.999 17.4477 12.999 18C12.999 18.5523 12.5513 19 11.999 19Z" stroke="#FF2156" stroke-width="1.5" stroke-linecap="round" stroke-linejoin="round"/>
</svg>
