<svg width="16" height="17" viewBox="0 0 16 17" fill="none" xmlns="http://www.w3.org/2000/svg">
<g clip-path="url(#clip0_4105_73200)">
<path d="M14.8034 2.54635C14.7565 2.4972 14.7001 2.45808 14.6376 2.43138C14.5752 2.40468 14.508 2.39094 14.44 2.39102H14.436C14.2687 2.42502 14.12 2.48435 13.986 2.56635L13.992 2.56302C13.7667 2.67702 13.5267 2.80435 13.2747 2.94568C13.0003 3.09659 12.7124 3.22136 12.4147 3.31835L12.378 3.32902C12.0704 3.4379 11.747 3.49599 11.4207 3.50102H11.418L11.3847 3.50168C11.136 3.50168 10.9007 3.44435 10.6914 3.34168L10.7007 3.34568C10.1559 3.07895 9.59375 2.84932 9.01802 2.65835L8.91536 2.62835C8.40032 2.46975 7.86426 2.38996 7.32536 2.39168H7.28202H7.28402C6.06465 2.44546 4.87543 2.78772 3.81402 3.39035L3.85202 3.37035C3.58536 3.50235 3.39736 3.60435 3.27469 3.67968L3.15269 2.78568C3.36015 2.60591 3.50552 2.36519 3.56805 2.09789C3.63057 1.83059 3.60705 1.55037 3.50084 1.29723C3.39464 1.04409 3.21118 0.830967 2.97665 0.688293C2.74212 0.545619 2.46851 0.480683 2.19488 0.502753C1.92126 0.524824 1.66159 0.632773 1.45296 0.811192C1.24433 0.989611 1.0974 1.22938 1.03314 1.49627C0.968882 1.76316 0.990578 2.04353 1.09513 2.29735C1.19969 2.55118 1.38176 2.76549 1.61536 2.90968L1.62069 2.91302L3.38069 15.8364C3.43336 16.213 3.75336 16.4997 4.14002 16.5004H4.14069C4.17802 16.5004 4.21469 16.4977 4.25069 16.493L4.24669 16.4937C4.34727 16.4805 4.44424 16.4475 4.53201 16.3967C4.61979 16.3458 4.69663 16.2781 4.7581 16.1974C4.81958 16.1167 4.86448 16.0247 4.89021 15.9265C4.91594 15.8284 4.922 15.7262 4.90802 15.6257L4.90869 15.6297L4.20069 10.4357C5.21733 9.86869 6.34973 9.54062 7.51202 9.47635L7.53269 9.47569H7.53869C7.95136 9.47569 8.34936 9.54102 8.72136 9.66235L8.69402 9.65502C9.02998 9.75534 9.35443 9.89075 9.66202 10.059L9.63602 10.0457C9.88536 10.1864 10.1774 10.3184 10.4814 10.425L10.52 10.437C10.8194 10.549 11.1654 10.6144 11.526 10.617H11.5274C12.6029 10.5498 13.6454 10.2195 14.5634 9.65502L14.5347 9.67169C14.658 9.61169 14.7634 9.53702 14.8547 9.44702C14.928 9.35898 14.9643 9.24595 14.956 9.13169V9.13302V2.91435V2.90968C14.9561 2.84213 14.9426 2.77525 14.9163 2.71305C14.8899 2.65085 14.8513 2.5946 14.8027 2.54768L14.8034 2.54635Z" fill="#4564ED"/>
</g>
<defs>
<clipPath id="clip0_4105_73200">
<rect width="16" height="16" fill="white" transform="translate(0 0.499756)"/>
</clipPath>
</defs>
</svg>
