<svg width="160" height="160" viewBox="0 0 160 160" fill="none" xmlns="http://www.w3.org/2000/svg">
<ellipse opacity="0.3" cx="80" cy="109.75" rx="69" ry="35.5" fill="#BBBBBB"/>
<path d="M88.2149 129.627L60.2422 113.035C59.6489 112.683 59.2852 112.044 59.2852 111.354V106.525L85.4747 95.3041C86.2099 94.9891 87.0479 95.0287 87.7496 95.4126C99.0205 101.579 119.64 112.872 120.018 113.127C120.388 113.377 101.918 123.458 91.5657 129.62C90.5321 130.236 89.2495 130.24 88.2149 129.627Z" fill="#464646"/>
<path d="M60.2862 105.042L85.3834 91.0488C86.1655 90.6127 87.1125 90.6066 87.8981 91.0364C99.2004 97.22 119.642 108.416 120.019 108.67C120.388 108.92 101.927 118.996 91.5735 125.159C90.5362 125.777 89.2483 125.779 88.2123 125.159L60.2348 108.425C58.9443 107.654 58.9729 105.774 60.2862 105.042Z" fill="#7D7D7D"/>
<path d="M141.998 47.3111V74.3363C141.998 75.2573 141.512 76.1099 140.719 76.5787L137.594 78.4267C136.708 78.9508 135.596 78.9037 134.757 78.3065L115.783 64.7974C115.163 64.3566 114.768 63.6673 114.699 62.9103L112.187 35.1993C112.097 34.2013 112.587 33.2399 113.447 32.7266L116.265 31.0462C117.074 30.5638 118.081 30.5556 118.897 31.0247L139.383 42.7932C141.001 43.7225 141.998 45.4456 141.998 47.3111Z" fill="#464646"/>
<path d="M111.062 64.8522V35.5768C111.062 33.5772 113.222 32.3231 114.959 33.3141L135.626 45.1071C137.251 46.0343 138.254 47.7616 138.254 49.6325V76.5944C138.254 78.5618 136.157 79.8192 134.421 78.8922L112.44 67.1501C111.592 66.697 111.062 65.8137 111.062 64.8522Z" fill="#CBCBCB"/>
<path d="M130.765 53.5032V114.591C130.765 115.226 130.456 115.821 129.938 116.187L126.48 118.63C125.824 119.094 124.95 119.108 124.278 118.666L65.8039 80.1591C65.2883 79.8195 64.9635 79.2562 64.9279 78.6399L61.4741 18.7987C61.4303 18.0406 61.8297 17.3259 62.4982 16.9659L65.6453 15.271C66.246 14.9475 66.9719 14.9607 67.5604 15.306L129.799 51.8179C130.397 52.1687 130.765 52.81 130.765 53.5032Z" fill="#7D7D7D"/>
<path d="M60.75 81.1427V19.3415C60.75 17.8262 62.4002 16.8876 63.7026 17.6622L125.575 54.458C126.167 54.8102 126.53 55.4483 126.53 56.1373V117.473C126.53 118.983 124.89 119.922 123.587 119.158L61.7145 82.8276C61.117 82.4767 60.75 81.8356 60.75 81.1427Z" fill="white"/>
<path d="M63.3574 67.3755V22.4839C63.3574 21.4744 64.4561 20.8486 65.3244 21.3636L122.332 55.1722C123.321 55.7587 123.927 56.8233 123.927 57.9731V102.437C123.927 103.443 122.835 104.069 121.967 103.561L64.9684 70.1856C63.9706 69.6013 63.3574 68.5317 63.3574 67.3755Z" fill="white" stroke="#CBCBCB" stroke-width="0.651289"/>
<path d="M75.4297 59.8491V49.6472C75.4297 48.1312 77.0811 47.1928 78.3835 47.9686L105.427 64.079C106.413 64.6663 107.017 65.7291 107.017 66.8766V76.6547C107.017 78.1605 105.386 79.1003 104.083 78.3448L77.0522 62.666C76.0479 62.0834 75.4297 61.0102 75.4297 59.8491Z" fill="#9FE860"/>
<path d="M89.1055 64.1924V61.5693C89.1055 60.5528 90.2179 59.928 91.0859 60.457L100.217 66.0222C100.799 66.3768 101.154 67.0091 101.154 67.6906V70.1673C101.154 71.177 100.055 71.8028 99.187 71.2875L90.0622 65.8727C89.4691 65.5207 89.1055 64.8821 89.1055 64.1924Z" fill="white"/>
<ellipse cx="2.93682" cy="4.52419" rx="2.93682" ry="4.52419" transform="matrix(0.920946 -0.38969 0.380726 0.924688 76.7754 54.6758)" fill="white"/>
<path d="M60.5898 81.3297V70.0464L126.533 109.331V118.204C126.533 119.463 125.165 120.246 124.079 119.607L61.3925 82.7332C60.8952 82.4406 60.5898 81.9067 60.5898 81.3297Z" fill="#CBCBCB"/>
<path d="M67.8846 27.4945C68.099 28.0154 68.1472 28.5241 68.0752 28.9147C68.0022 29.3108 67.8244 29.5205 67.6424 29.5974C67.4605 29.6744 67.1884 29.6551 66.8593 29.4292C66.5347 29.2064 66.2119 28.8139 65.9974 28.2931C65.783 27.7723 65.7348 27.2635 65.8068 26.873C65.8798 26.4769 66.0576 26.2672 66.2396 26.1902C66.4215 26.1132 66.6936 26.1325 67.0227 26.3585C67.3473 26.5812 67.6701 26.9737 67.8846 27.4945Z" stroke="#CBCBCB" stroke-width="0.976934"/>
<ellipse cx="1.51304" cy="2.33085" rx="1.51304" ry="2.33085" transform="matrix(0.920946 -0.38969 0.380726 0.924688 68.8945 28.6387)" fill="#55DB1E"/>
<path d="M76.3514 32.4474C76.5658 32.9682 76.614 33.477 76.542 33.8675C76.469 34.2636 76.2912 34.4733 76.1092 34.5503C75.9273 34.6273 75.6552 34.608 75.3261 34.3821C75.0015 34.1593 74.6787 33.7668 74.4642 33.246C74.2498 32.7251 74.2016 32.2164 74.2736 31.8259C74.3466 31.4297 74.5244 31.22 74.7064 31.1431C74.8883 31.0661 75.1604 31.0854 75.4895 31.3113C75.8141 31.5341 76.1369 31.9266 76.3514 32.4474Z" stroke="#CBCBCB" stroke-width="0.976934"/>
<path d="M60.8474 123.361C60.8474 129.651 52.1726 134.75 41.4716 134.75C30.7706 134.75 22.0957 129.651 22.0957 123.361C22.0957 117.071 19.4896 111.972 41.4716 111.972C62.9632 111.972 60.8474 117.071 60.8474 123.361Z" fill="#464646"/>
<ellipse cx="41.4715" cy="118.409" rx="19.3758" ry="11.3893" fill="#7D7D7D"/>
<ellipse cx="41.4703" cy="118.574" rx="9.28087" ry="5.28199" fill="#55DB1E"/>
<path d="M30.2363 79.4206V120.663C30.2363 121.119 30.4747 121.541 30.8648 121.777L34.2821 123.844C34.7789 124.144 35.4145 124.08 35.8407 123.686L49.5355 111.017C49.7821 110.789 49.931 110.475 49.9512 110.139L52.3244 70.7483C52.3578 70.1941 52.0363 69.6797 51.5235 69.4669L48.7369 68.3101C48.3647 68.1556 47.9419 68.1821 47.5919 68.3819L31.2218 77.7237C30.6125 78.0714 30.2363 78.7191 30.2363 79.4206Z" fill="white"/>
<path d="M53.0294 113.335V70.974C53.0294 69.9728 51.9469 69.3459 51.0785 69.8442L34.7977 79.1876C34.1907 79.5359 33.8164 80.1824 33.8164 80.8822V122.92C33.8164 123.923 34.9017 124.549 35.7701 124.048L52.378 114.463C52.7811 114.23 53.0294 113.8 53.0294 113.335Z" fill="#CBCBCB"/>
<path d="M51.9609 112.52V72.3859C51.9609 71.6365 51.1519 71.1661 50.5006 71.5369L36.0145 79.7838C35.4042 80.1312 35.0273 80.7795 35.0273 81.4818V121.824C35.0273 122.578 35.8455 123.048 36.4967 122.668L50.9919 114.208C51.5919 113.857 51.9609 113.215 51.9609 112.52Z" fill="#7D7D7D"/>
<path d="M49.0291 78.4251V78.3262C49.0291 77.5774 48.2213 77.107 47.5701 77.4765L40.2494 81.6303C39.6377 81.9774 39.2598 82.6264 39.2598 83.3297V83.5334C39.2598 84.2869 40.0766 84.7567 40.7279 84.3779L48.0577 80.114C48.6591 79.7641 49.0291 79.1209 49.0291 78.4251Z" fill="#464646"/>
</svg>
