<svg width="167" height="168" viewBox="0 0 167 168" fill="none" xmlns="http://www.w3.org/2000/svg">
<ellipse opacity="0.3" cx="83.4992" cy="106.076" rx="72.0188" ry="37.0531" fill="#E0F4FF"/>
<path d="M119.106 117.531V112.58L123.605 111.707L133.327 113.891L140.146 121.317V133.839C140.146 128.714 133.859 124.812 130.715 123.501L119.106 117.531Z" fill="url(#paint0_linear_2603_121076)"/>
<path d="M117.8 122.915V117.236L118.961 116.071L123.605 116.945L127.668 117.818L131.73 122.915V134.127C130.105 126.904 121.767 123.643 117.8 122.915Z" fill="url(#paint1_linear_2603_121076)"/>
<path d="M116.641 129.903V121.603L118.382 120.729L120.704 121.166L123.025 122.914V133.98C122.097 130.252 118.382 129.709 116.641 129.903Z" fill="url(#paint2_linear_2603_121076)"/>
<path d="M116.639 119.276V121.606C117.122 121.606 118.525 121.46 120.411 122.188C122.198 122.877 122.927 124.323 123.023 125.1H126.506C126.216 122.625 124.62 121.315 122.443 120.295C120.655 119.458 117.8 119.277 116.639 119.276Z" fill="#9FE860"/>
<path d="M119.106 110.395V112.579C120.848 112.579 127.087 112.725 132.746 115.782C139.15 119.242 140.147 123.209 140.147 125.101H143.92C143.92 122.772 142.962 118.986 136.809 114.909C130.657 110.832 122.444 110.201 119.106 110.395Z" fill="#9FE860"/>
<path d="M143.92 133.837V125.1H140.147V133.837H143.92Z" fill="url(#paint3_linear_2603_121076)"/>
<path d="M129.415 117.532C124.478 114.911 119.499 114.814 117.806 114.911V117.241C118.964 117.091 122.154 116.942 126.51 118.838C130.572 120.608 131.588 123.352 131.733 125.104H135.219C135.218 123.498 134.467 120.214 129.415 117.532Z" fill="#9FE860"/>
<rect width="3.4825" height="9.02774" transform="matrix(-1 0 0 1 135.215 125.1)" fill="url(#paint4_linear_2603_121076)"/>
<rect width="3.4825" height="8.73652" transform="matrix(-1 0 0 1 126.506 125.1)" fill="url(#paint5_linear_2603_121076)"/>
<path fill-rule="evenodd" clip-rule="evenodd" d="M114.609 125.105H119.543V132.091V132.094H119.543C119.54 132.897 118.437 133.547 117.076 133.547C115.716 133.547 114.612 132.897 114.609 132.094H114.609V132.091V125.105Z" fill="url(#paint6_linear_2603_121076)"/>
<ellipse cx="2.46677" cy="1.45609" rx="2.46677" ry="1.45609" transform="matrix(-1 0 0 1 119.543 123.643)" fill="#9FE860"/>
<path d="M65.4837 150.796L42.1001 136.484C41.4312 136.074 41.0234 135.347 41.0234 134.563V130.55C41.0234 128.644 42.2227 126.944 44.0182 126.305L67.4253 117.976C69.6907 117.17 72.164 117.165 74.4327 117.962L97.6051 126.1C99.4097 126.734 100.617 128.438 100.617 130.351V134.977C100.617 135.767 100.203 136.5 99.5267 136.907L76.3932 150.835C73.034 152.858 68.8282 152.843 65.4837 150.796Z" fill="#3079EC"/>
<path d="M43.0299 126.062L65.5395 112.694C68.8578 110.723 72.9894 110.729 76.3018 112.71L98.637 126.065C100.103 126.942 100.098 129.068 98.6272 129.938L76.2561 143.161C72.9665 145.105 68.8808 145.112 65.5854 143.177L43.0397 129.941C41.5612 129.073 41.5558 126.937 43.0299 126.062Z" fill="#D4E6FF"/>
<path d="M46.8874 126.316L66.2742 114.802C69.1323 113.105 72.6906 113.11 75.5435 114.816L94.7802 126.319C96.0432 127.074 96.0385 128.905 94.7718 129.654L75.5042 141.043C72.6709 142.718 69.152 142.723 66.3138 141.057L46.8959 129.657C45.6225 128.91 45.6178 127.07 46.8874 126.316Z" stroke="white" stroke-width="0.646677"/>
<path d="M78.3084 123.793C81.5239 125.746 81.4985 130.425 78.2731 132.363C73.7985 135.05 68.1745 135.055 63.6918 132.381C60.4439 130.443 60.4183 125.728 63.6562 123.774C68.1619 121.055 73.811 121.06 78.3084 123.793Z" fill="#FF6500" stroke="white" stroke-width="0.646677"/>
<path d="M69.5893 124.722L67.9657 125.75C66.4075 126.737 66.8532 129.125 68.6632 129.487L70.5491 129.864C72.8794 130.331 74.6964 127.873 73.5725 125.775C72.7999 124.332 70.9684 123.848 69.5893 124.722Z" fill="white"/>
<path d="M20.6028 111.306L14.4816 107.74C13.6332 107.245 13.1113 106.337 13.1113 105.356V104.625C13.1113 103.647 13.6609 102.752 14.533 102.31L45.8338 86.434C47.8358 85.4186 50.1643 85.2597 52.2857 85.9938L58.5215 88.1515C59.5671 88.5134 60.2685 89.4982 60.2685 90.6047V91.3953C60.2685 92.3057 59.7915 93.1496 59.0116 93.6192L29.7441 111.241C26.9377 112.93 23.4332 112.956 20.6028 111.306Z" fill="#3079EC"/>
<path d="M15.7958 100.765L44.7871 83.9465C47.3686 82.4489 50.5563 82.4567 53.1305 83.9668L57.8433 86.7316C59.5465 87.7307 59.5547 90.1902 57.8582 91.2007L29.5827 108.043C26.8606 109.664 23.485 109.729 20.7027 108.214L15.8604 105.576C13.9704 104.546 13.9341 101.845 15.7958 100.765Z" fill="#D4E6FF"/>
<path d="M18.3691 102.835L24.9945 106.55" stroke="#83BAFF" stroke-width="3.44948" stroke-linecap="round"/>
<ellipse cx="36.4939" cy="95.6013" rx="6.04079" ry="3.71529" fill="white"/>
<ellipse cx="55.2001" cy="88.5609" rx="2.14351" ry="1.36879" fill="#E66B6B"/>
<ellipse cx="25.8251" cy="99.1229" rx="2.14351" ry="1.36879" fill="white"/>
<ellipse cx="42.4538" cy="88.7672" rx="1.44408" ry="0.869463" fill="white"/>
<path d="M47.0757 90.7977C47.0757 91.2779 46.4291 91.6671 45.6316 91.6671C44.834 91.6671 44.1875 91.2779 44.1875 90.7977C44.1875 90.3175 44.834 89.9282 45.6316 89.9282C46.4291 89.9282 47.0757 90.3175 47.0757 90.7977Z" fill="white"/>
<path d="M50.2534 92.8238C50.2534 93.304 49.6069 93.6933 48.8093 93.6933C48.0118 93.6933 47.3652 93.304 47.3652 92.8238C47.3652 92.3436 48.0118 91.9543 48.8093 91.9543C49.6069 91.9543 50.2534 92.3436 50.2534 92.8238Z" fill="white"/>
<ellipse cx="31.0244" cy="102.018" rx="2.14351" ry="1.36879" fill="white"/>
<path d="M120.334 47.7086V98.5468C120.334 99.502 119.871 100.398 119.092 100.95L117.403 102.148C116.411 102.852 115.088 102.873 114.074 102.203L65.5263 70.1218C64.7507 69.6092 64.2625 68.7607 64.2091 67.8326L61.3498 18.1201C61.2841 16.9786 61.8847 15.9022 62.8906 15.3586L64.2182 14.6412C65.1261 14.1505 66.2246 14.1706 67.114 14.6941L118.883 45.1694C119.782 45.6989 120.334 46.6648 120.334 47.7086Z" fill="#70AFFF"/>
<path d="M79.3667 81.7083V79.5605C79.3667 78.1346 80.7892 77.1464 82.1254 77.644L89.5979 80.4265C92.1176 81.3648 94.0154 83.4815 94.6742 86.0883L95.4107 89.003C96.2975 92.5122 94.7726 96.1871 91.6617 98.0375L84.9865 102.008C82.4595 103.511 79.3202 103.543 76.7638 102.09L67.113 96.6074C66.4733 96.244 66.0781 95.565 66.0781 94.8292V94.0841C66.0781 93.2605 66.5722 92.5172 67.3316 92.1984L74.3529 89.2508C77.3905 87.9756 79.3667 85.0027 79.3667 81.7083Z" fill="#3079EC"/>
<path d="M68.4679 91.3711L75.6861 87.6083C77.7683 86.5229 78.8653 84.1772 78.3635 81.8834C78.0492 80.4468 79.5534 79.2957 80.858 79.9745L89.95 84.7052C91.4773 85.4999 92.6004 86.8998 93.0451 88.5631L93.1852 89.0872C93.88 91.6857 92.8012 94.4336 90.5242 95.8655L83.8066 100.09C81.8793 101.302 79.4393 101.347 77.4685 100.207L68.3892 94.9547C66.9931 94.1471 67.0377 92.1166 68.4679 91.3711Z" fill="#70AFFF"/>
<path d="M60.6836 69.8779V20.0249C60.6836 17.7376 63.1761 16.3224 65.1402 17.4946L115.287 47.421C116.178 47.9527 116.724 48.9138 116.724 49.9513V99.4255C116.724 101.705 114.246 103.122 112.282 101.964L62.1344 72.4166C61.2354 71.8869 60.6836 70.9213 60.6836 69.8779Z" fill="white"/>
<path d="M62.9043 57.6251V21.9618C62.9043 20.4381 64.5639 19.4945 65.8733 20.2738L112.106 47.7879C113.594 48.6733 114.506 50.2768 114.506 52.0081V87.3232C114.506 88.8421 112.856 89.7863 111.546 89.0169L65.3274 61.8593C63.8262 60.9773 62.9043 59.3663 62.9043 57.6251Z" fill="white" stroke="#83BAFF" stroke-width="0.982206"/>
<path d="M66.9004 51.5756V30.2106C66.9004 27.9249 69.39 26.5095 71.3541 27.6786L107.824 49.3865C109.311 50.272 110.223 51.8754 110.223 53.6066V74.4004C110.223 76.6709 107.763 78.0883 105.799 76.9498L69.3488 55.8246C67.8333 54.9462 66.9004 53.3272 66.9004 51.5756Z" fill="#D4E6FF"/>
<path d="M84.0117 54.8719V49.1999C84.0117 47.4212 86.2843 46.6771 87.3363 48.1113L91.7482 54.1256C92.6097 55.2999 92.0023 56.9729 90.588 57.321L87.9615 57.9674C85.9523 58.462 84.0117 56.9411 84.0117 54.8719Z" fill="white"/>
<path d="M60.5449 70.1624V61.1221L116.724 94.7066V100.425C116.724 102.325 114.657 103.506 113.02 102.539L61.7522 72.277C61.004 71.8353 60.5449 71.0312 60.5449 70.1624Z" fill="#D4E6FF"/>
<path d="M66.9004 58.6489L110.223 84.443" stroke="#83BAFF" stroke-width="2.04505" stroke-linecap="round"/>
<ellipse cx="1.28969" cy="1.99164" rx="1.28969" ry="1.99164" transform="matrix(0.920459 -0.390839 0.379597 0.925152 76.7207 64.2939)" fill="#55DB1E"/>
<defs>
<linearGradient id="paint0_linear_2603_121076" x1="129.626" y1="111.707" x2="129.626" y2="133.839" gradientUnits="userSpaceOnUse">
<stop stop-color="#35A012"/>
<stop offset="1" stop-color="white"/>
</linearGradient>
<linearGradient id="paint1_linear_2603_121076" x1="124.765" y1="116.071" x2="124.765" y2="134.127" gradientUnits="userSpaceOnUse">
<stop stop-color="#35A012"/>
<stop offset="1" stop-color="white"/>
</linearGradient>
<linearGradient id="paint2_linear_2603_121076" x1="119.833" y1="120.729" x2="119.833" y2="133.98" gradientUnits="userSpaceOnUse">
<stop stop-color="#35A012"/>
<stop offset="1" stop-color="white"/>
</linearGradient>
<linearGradient id="paint3_linear_2603_121076" x1="142.034" y1="125.1" x2="142.034" y2="133.837" gradientUnits="userSpaceOnUse">
<stop stop-color="#35A012"/>
<stop offset="1" stop-color="white"/>
</linearGradient>
<linearGradient id="paint4_linear_2603_121076" x1="1.74125" y1="0" x2="1.74125" y2="9.02774" gradientUnits="userSpaceOnUse">
<stop stop-color="#35A012"/>
<stop offset="1" stop-color="white"/>
</linearGradient>
<linearGradient id="paint5_linear_2603_121076" x1="1.74125" y1="0" x2="1.74125" y2="8.73652" gradientUnits="userSpaceOnUse">
<stop stop-color="#35A012"/>
<stop offset="1" stop-color="white"/>
</linearGradient>
<linearGradient id="paint6_linear_2603_121076" x1="117.076" y1="125.105" x2="117.076" y2="133.547" gradientUnits="userSpaceOnUse">
<stop stop-color="#35A012"/>
<stop offset="1" stop-color="white"/>
</linearGradient>
</defs>
</svg>
