<svg width="24" height="24" viewBox="0 0 24 24" fill="none" xmlns="http://www.w3.org/2000/svg">
<path d="M16.9609 6.17456C18.9609 7.56456 20.3409 9.77456 20.6209 12.3246" stroke="#0AA6EF" stroke-width="1.5" stroke-linecap="round" stroke-linejoin="round"/>
<path d="M3.49023 12.3746C3.75023 9.83464 5.11023 7.62464 7.09023 6.22464" stroke="#0AA6EF" stroke-width="1.5" stroke-linecap="round" stroke-linejoin="round"/>
<path d="M8.18945 20.9446C9.34945 21.5346 10.6695 21.8646 12.0595 21.8646C13.3995 21.8646 14.6595 21.5646 15.7895 21.0146" stroke="#0AA6EF" stroke-width="1.5" stroke-linecap="round" stroke-linejoin="round"/>
<path d="M12.0593 7.70477C13.5946 7.70477 14.8393 6.46013 14.8393 4.92478C14.8393 3.38942 13.5946 2.14478 12.0593 2.14478C10.5239 2.14478 9.2793 3.38942 9.2793 4.92478C9.2793 6.46013 10.5239 7.70477 12.0593 7.70477Z" stroke="#2569FF" stroke-width="1.5" stroke-linecap="round" stroke-linejoin="round"/>
<path d="M4.83078 19.9245C6.36613 19.9245 7.61078 18.6799 7.61078 17.1445C7.61078 15.6092 6.36613 14.3645 4.83078 14.3645C3.29543 14.3645 2.05078 15.6092 2.05078 17.1445C2.05078 18.6799 3.29543 19.9245 4.83078 19.9245Z" stroke="#2569FF" stroke-width="1.5" stroke-linecap="round" stroke-linejoin="round"/>
<path d="M19.1706 19.9245C20.706 19.9245 21.9506 18.6799 21.9506 17.1445C21.9506 15.6092 20.706 14.3645 19.1706 14.3645C17.6353 14.3645 16.3906 15.6092 16.3906 17.1445C16.3906 18.6799 17.6353 19.9245 19.1706 19.9245Z" stroke="#2569FF" stroke-width="1.5" stroke-linecap="round" stroke-linejoin="round"/>
</svg>
