<svg width="21" height="21" viewBox="0 0 21 21" fill="none" xmlns="http://www.w3.org/2000/svg">
<g id="vuesax/linear/copy">
<g id="copy">
<path id="Vector" d="M13.8337 11.2501V14.7501C13.8337 17.6667 12.667 18.8334 9.75033 18.8334H6.25033C3.33366 18.8334 2.16699 17.6667 2.16699 14.7501V11.2501C2.16699 8.33341 3.33366 7.16675 6.25033 7.16675H9.75033C12.667 7.16675 13.8337 8.33341 13.8337 11.2501Z" stroke="#2569FF" stroke-width="1.5" stroke-linecap="round" stroke-linejoin="round"/>
<path id="Vector_2" d="M18.8337 6.25008V9.75008C18.8337 12.6667 17.667 13.8334 14.7503 13.8334H13.8337V11.2501C13.8337 8.33341 12.667 7.16675 9.75033 7.16675H7.16699V6.25008C7.16699 3.33341 8.33366 2.16675 11.2503 2.16675H14.7503C17.667 2.16675 18.8337 3.33341 18.8337 6.25008Z" stroke="#2569FF" stroke-width="1.5" stroke-linecap="round" stroke-linejoin="round"/>
</g>
</g>
</svg>
