<svg width="20" height="20" viewBox="0 0 20 20" fill="none" xmlns="http://www.w3.org/2000/svg">
<path fill-rule="evenodd" clip-rule="evenodd" d="M10.8789 0.490386C10.433 -0.0828945 9.56653 -0.0828961 9.12065 0.490385L6.46353 3.90668C6.17555 4.27693 6.43941 4.81642 6.90847 4.81642H7.63596V5.68012C7.63596 6.43329 8.24652 7.04385 8.99969 7.04385H10.9998C11.753 7.04385 12.3636 6.43329 12.3636 5.68012V4.81642H13.0911C13.5601 4.81642 13.824 4.27693 13.536 3.90668L10.8789 0.490386Z" fill="url(#paint0_linear_4706_6941)"/>
<path fill-rule="evenodd" clip-rule="evenodd" d="M7.59082 8.86179C7.59082 8.35968 7.99786 7.95264 8.49998 7.95264H11.5002C12.0023 7.95264 12.4093 8.35968 12.4093 8.86179C12.4093 9.36391 12.0023 9.77095 11.5002 9.77095H8.49998C7.99786 9.77095 7.59082 9.36391 7.59082 8.86179Z" fill="url(#paint1_linear_4706_6941)"/>
<path fill-rule="evenodd" clip-rule="evenodd" d="M17.8223 11.5605L19.0224 17.5609C19.2699 18.7986 18.3233 19.9533 17.0611 19.9533H15.7367C14.9791 19.9533 14.2865 19.5253 13.9477 18.8477L13.7769 18.506C13.6074 18.1672 13.2612 17.9532 12.8824 17.9532H8.11809C7.73929 17.9532 7.39301 18.1672 7.2236 18.506L7.05277 18.8477C6.71396 19.5253 6.02139 19.9533 5.26379 19.9533H2.9393C1.67712 19.9533 0.730463 18.7986 0.977998 17.5609L2.17808 11.5605C2.36507 10.6256 3.18595 9.95264 4.13938 9.95264H6.58574C6.85097 9.95264 7.10534 10.058 7.29289 10.2456L7.70714 10.6598C7.89469 10.8473 8.14906 10.9527 8.41429 10.9527H11.5861C11.8513 10.9527 12.1057 10.8473 12.2933 10.6598L12.7075 10.2456C12.895 10.058 13.1494 9.95264 13.4147 9.95264H15.861C16.8144 9.95264 17.6353 10.6256 17.8223 11.5605ZM5.95026 12.9526C5.95026 12.7041 5.74877 12.5026 5.50022 12.5026C5.25168 12.5026 5.05019 12.7041 5.05019 12.9526V14.0025H4.00006C3.75151 14.0025 3.55002 14.204 3.55002 14.4525C3.55002 14.7011 3.75151 14.9026 4.00006 14.9026H5.05019V15.9528C5.05019 16.2014 5.25168 16.4028 5.50022 16.4028C5.74877 16.4028 5.95026 16.2014 5.95026 15.9528V14.9026H7.00027C7.24882 14.9026 7.4503 14.7011 7.4503 14.4525C7.4503 14.204 7.24882 14.0025 7.00027 14.0025H5.95026V12.9526ZM13.95 14.4528C13.95 13.8729 14.4202 13.4027 15.0001 13.4027C15.5801 13.4027 16.0502 13.8729 16.0502 14.4528C16.0502 15.0328 15.5801 15.5029 15.0001 15.5029C14.4202 15.5029 13.95 15.0328 13.95 14.4528ZM15.0001 12.5027C13.9231 12.5027 13.05 13.3758 13.05 14.4528C13.05 15.5299 13.9231 16.403 15.0001 16.403C16.0772 16.403 16.9503 15.5299 16.9503 14.4528C16.9503 13.3758 16.0772 12.5027 15.0001 12.5027Z" fill="url(#paint2_linear_4706_6941)"/>
<defs>
<linearGradient id="paint0_linear_4706_6941" x1="9.99976" y1="0.0604248" x2="9.99976" y2="7.04385" gradientUnits="userSpaceOnUse">
<stop stop-color="#1B76FF"/>
<stop offset="1" stop-color="#0330CF"/>
</linearGradient>
<linearGradient id="paint1_linear_4706_6941" x1="10.0001" y1="7.95264" x2="10.0001" y2="9.77095" gradientUnits="userSpaceOnUse">
<stop stop-color="#1B76FF"/>
<stop offset="1" stop-color="#0330CF"/>
</linearGradient>
<linearGradient id="paint2_linear_4706_6941" x1="10.0002" y1="9.95264" x2="10.0002" y2="19.9533" gradientUnits="userSpaceOnUse">
<stop stop-color="#1B76FF"/>
<stop offset="1" stop-color="#0330CF"/>
</linearGradient>
</defs>
</svg>
