<svg width="24" height="25" viewBox="0 0 24 25" fill="none" xmlns="http://www.w3.org/2000/svg">
<path d="M8.34375 15.0898C8.80959 14.5902 9.37285 14.1914 9.99877 13.918C10.6247 13.6445 11.3005 13.5024 11.9836 13.5C12.6666 13.4976 13.3428 13.6353 13.9706 13.9044C14.5985 14.1734 15.1647 14.5682 15.634 15.0645M6.15039 12.0439C6.8941 11.2464 7.793 10.6093 8.79189 10.1719C9.79078 9.73441 10.8688 9.50575 11.9592 9.5M3.22461 9.31649C4.34275 8.11743 5.69474 7.16021 7.19715 6.50391C8.69957 5.8476 10.3208 5.50558 11.9603 5.5M12.001 19.5C11.4487 19.5 11.001 19.0523 11.001 18.5C11.001 17.9477 11.4487 17.5 12.001 17.5C12.5533 17.5 13.001 17.9477 13.001 18.5C13.001 19.0523 12.5533 19.5 12.001 19.5Z" stroke="#2569FF" stroke-width="1.5" stroke-linecap="round" stroke-linejoin="round"/>
<circle cx="17.502" cy="7" r="3.5" fill="#FF2156"/>
</svg>
