<svg width="24" height="24" viewBox="0 0 24 24" fill="none" xmlns="http://www.w3.org/2000/svg">
<g id="vuesax/linear/copy">
<g id="copy">
<path id="Vector" d="M15.998 12.9V17.1C15.998 20.6 14.598 22 11.098 22H6.89805C3.39805 22 1.99805 20.6 1.99805 17.1V12.9C1.99805 9.4 3.39805 8 6.89805 8H11.098C14.598 8 15.998 9.4 15.998 12.9Z" stroke="#464646" stroke-width="1.5" stroke-linecap="round" stroke-linejoin="round"/>
<path id="Vector_2" d="M21.998 6.9V11.1C21.998 14.6 20.598 16 17.098 16H15.998V12.9C15.998 9.4 14.598 8 11.098 8H7.99805V6.9C7.99805 3.4 9.39805 2 12.898 2H17.098C20.598 2 21.998 3.4 21.998 6.9Z" stroke="#464646" stroke-width="1.5" stroke-linecap="round" stroke-linejoin="round"/>
</g>
</g>
</svg>
