<svg width="160" height="160" viewBox="0 0 160 160" fill="none" xmlns="http://www.w3.org/2000/svg">
<ellipse opacity="0.3" cx="80" cy="117.083" rx="66.5" ry="31" fill="#C5C5C5"/>
<path d="M33.5551 112.018C36.3531 92.5643 55.0937 86.1656 66.5189 84.584H93.3632C119.483 84.584 126.465 101.629 126.732 119.087C126.791 122.894 125.502 126.656 122.797 129.335C115.199 136.859 104.878 140.295 92.1566 143.317C81.1688 144.801 69.913 143.317 60.4866 141.224C50.4018 138.985 43.7344 134.685 39.0673 131.154C35.5868 128.521 33.5109 124.298 33.438 119.935C33.3893 117.015 33.379 114.044 33.5551 112.018Z" fill="#CBCBCB"/>
<path fill-rule="evenodd" clip-rule="evenodd" d="M33.407 112.017C33.4069 112.018 33.4069 112.018 33.4068 112.018C33.2306 114.043 33.2408 117.012 33.2896 119.93C33.3625 124.297 35.441 128.521 38.9249 131.154C43.5971 134.686 50.272 138.985 60.3682 141.224C69.8051 143.318 81.0734 144.801 92.0734 143.318C104.808 140.296 115.14 136.859 122.746 129.337C125.455 126.658 126.746 122.892 126.688 119.082C126.629 115.255 126.247 111.447 125.41 107.835C125.319 108.611 124.516 110.416 121.74 113.293C117.74 117.44 103.74 128.924 86.7403 129.562C75.0826 129.999 68.407 128.924 57.407 125.734C45.7032 122.34 36.407 117.121 33.407 112.017C33.407 112.017 33.407 112.017 33.407 112.017Z" fill="#7D7D7D"/>
<path d="M36.7402 128.25V119.243C36.7402 112.102 41.4069 100.321 57.7402 102.963C79.8861 106.544 86.3327 117.584 86.7358 127.785V143.25" stroke="white" stroke-opacity="0.3" stroke-width="1.33333" stroke-linecap="round"/>
<path d="M60.755 93.9766L60.5429 94.0268L60.371 94.1607C58.2467 95.8153 52.4043 100.648 51.793 109.219C51.699 110.537 52.5366 111.673 53.6981 112.104L58.4202 113.855C59.5295 114.266 60.6144 113.442 60.7051 112.379C60.9087 109.993 61.9029 107.042 63.4273 104.387C64.9577 101.721 66.9434 99.49 69.0309 98.4062C69.69 98.064 70.2293 97.6985 70.5853 97.2868C70.958 96.8557 71.2309 96.2345 70.9778 95.5524C70.7634 94.9743 70.2599 94.6333 69.8646 94.4331C69.4347 94.2154 68.914 94.055 68.3702 93.935C66.2237 93.4617 62.9405 93.459 60.755 93.9766Z" fill="#464646" stroke="#7D7D7D" stroke-width="2"/>
<ellipse cx="47.6247" cy="129.189" rx="4.66667" ry="2.21442" transform="rotate(25.5175 47.6247 129.189)" fill="white"/>
<ellipse cx="68.3535" cy="135.417" rx="5.24148" ry="2.41533" transform="rotate(6.02588 68.3535 135.417)" fill="white"/>
<path d="M118.74 61.9166C118.74 84.008 100.832 98.5833 78.7402 98.5833C56.6488 98.5833 38.7402 84.008 38.7402 61.9166C38.7402 39.8252 56.6488 21.9166 78.7402 21.9166C100.832 21.9166 118.74 39.8252 118.74 61.9166Z" fill="#7D7D7D"/>
<path d="M77.6156 67.8981C79.2554 79.5655 73.4909 90.0208 64.7403 91.2506C55.9898 92.4804 47.5668 84.019 45.927 72.3516C44.2873 60.6842 50.0517 50.229 58.8023 48.9991C67.5529 47.7693 75.9759 56.2307 77.6156 67.8981Z" fill="#464646"/>
<path d="M72.6705 68.593C73.7984 76.6185 69.8333 83.8103 63.8142 84.6562C57.7951 85.5021 52.0012 79.6819 50.8733 71.6564C49.7454 63.6309 53.7105 56.4392 59.7297 55.5933C65.7488 54.7473 71.5426 60.5675 72.6705 68.593Z" fill="#252525"/>
<path fill-rule="evenodd" clip-rule="evenodd" d="M41.7407 69.9171C41.7407 54.2505 50.0741 45.9165 59.2386 44.9981C69.5607 43.5474 80.5896 51.79 83.4074 66.5832C84.7407 73.5832 83.7407 80.9165 82.7407 86.9165C81.77 92.741 87.4074 95.9165 97.0741 94.2498C105.397 92.8149 112.236 86.4387 115.467 82.7787C119.653 76.6736 122.074 69.2107 122.074 60.7285C122.074 36.7161 102.673 17.2502 78.7406 17.2502C54.8082 17.2502 35.4072 36.7161 35.4072 60.7285C35.4072 70.4317 38.5753 78.801 43.9302 85.3298C44.2816 85.5718 44.5584 85.7654 44.7403 85.9171C44.8106 85.963 44.8807 86.0094 44.9506 86.0555C46.0639 86.7914 47.1136 87.4852 47.7409 85.917C45.0741 82.5838 42.0741 77.9171 41.7407 69.9171Z" fill="white"/>
<path d="M50.7402 11.9166L61.4069 30.9166" stroke="#464646" stroke-width="4" stroke-linecap="round"/>
<path d="M78.7402 35.2504L105.074 15.9171" stroke="#464646" stroke-width="4" stroke-linecap="round"/>
</svg>
