<svg width="22" height="22" viewBox="0 0 22 22" fill="none" xmlns="http://www.w3.org/2000/svg">
<path d="M21.1297 10.9942C21.1192 5.38913 16.5986 0.873725 10.9995 0.87671C5.39667 0.879696 0.879024 5.39585 0.873053 10.9987C0.867082 16.6038 5.41981 21.1505 11.0174 21.1304C16.6285 21.111 21.1401 16.5881 21.1297 10.9942Z" stroke="#2569FF" stroke-width="1.5" stroke-miterlimit="10" stroke-linecap="round"/>
<path d="M3.25816 11.046C3.24174 10.8989 3.25518 10.7489 3.25518 10.5997C3.44251 7.10749 5.91889 4.29376 9.07744 3.4989C10.806 3.06378 12.4912 3.20782 14.128 3.91163" stroke="#6DD4FF" stroke-width="1.5" stroke-miterlimit="10" stroke-linecap="round" stroke-linejoin="round"/>
<path d="M18.0664 7.82007C18.4642 8.703 18.6904 9.62772 18.7501 10.5957C18.7501 10.7443 18.762 10.8943 18.7478 11.0421" stroke="#6DD4FF" stroke-width="1.5" stroke-miterlimit="10" stroke-linecap="round" stroke-linejoin="round"/>
<path d="M12.6758 9.29247L16.9665 5.00171" stroke="#6DD4FF" stroke-width="1.5" stroke-miterlimit="10" stroke-linecap="round" stroke-linejoin="round"/>
<path d="M11.0013 13.4741C12.3418 13.4741 13.4285 12.3875 13.4285 11.047C13.4285 9.70653 12.3418 8.61987 11.0013 8.61987C9.66088 8.61987 8.57422 9.70653 8.57422 11.047C8.57422 12.3875 9.66088 13.4741 11.0013 13.4741Z" stroke="#2569FF" stroke-width="1.5" stroke-miterlimit="10" stroke-linecap="round"/>
</svg>
