<svg width="24" height="24" viewBox="0 0 24 24" fill="none" xmlns="http://www.w3.org/2000/svg">
<path d="M12.4303 19.2531C12.4303 19.3516 12.3505 19.4315 12.252 19.4315C12.1534 19.4315 12.0736 19.3516 12.0736 19.2531C12.0736 19.1546 12.1534 19.0748 12.252 19.0748C12.3505 19.0748 12.4303 19.1546 12.4303 19.2531Z" fill="#2569FF" stroke="#2569FF" stroke-width="2.14327"/>
<path d="M14.67 15.5149C14.0037 15.0944 13.2144 14.851 12.3682 14.851C11.522 14.851 10.7327 15.0944 10.0664 15.5149" stroke="#2569FF" stroke-width="2.14327" stroke-linecap="round"/>
<path d="M18.1362 11.6193C16.5364 10.395 14.5361 9.66753 12.3659 9.66753C10.1958 9.66753 8.19553 10.395 6.5957 11.6193" stroke="#2569FF" stroke-width="2.14327" stroke-linecap="round"/>
<path d="M21.4051 7.59374C18.9129 5.6452 15.7754 4.48391 12.3666 4.48391C8.95788 4.48391 5.82036 5.6452 3.32812 7.59374" stroke="#2569FF" stroke-width="2.14327" stroke-linecap="round"/>
</svg>
