<svg width="24" height="24" viewBox="0 0 24 24" fill="none" xmlns="http://www.w3.org/2000/svg">
<path d="M2 15C2 12.2386 4.23858 10 7 10H17C19.7614 10 22 12.2386 22 15C22 17.7614 19.7614 20 17 20H7C4.23858 20 2 17.7614 2 15Z" stroke="#2569FF" stroke-width="1.5"/>
<path d="M18.3292 22.3354C18.5144 22.7059 18.9649 22.8561 19.3354 22.6708C19.7059 22.4856 19.8561 22.0351 19.6708 21.6646L18.3292 22.3354ZM17.3292 20.3354L18.3292 22.3354L19.6708 21.6646L18.6708 19.6646L17.3292 20.3354Z" fill="#2569FF"/>
<path d="M5.67082 22.3354C5.48558 22.7059 5.03507 22.8561 4.66459 22.6708C4.29411 22.4856 4.14394 22.0351 4.32918 21.6646L5.67082 22.3354ZM6.67082 20.3354L5.67082 22.3354L4.32918 21.6646L5.32918 19.6646L6.67082 20.3354Z" fill="#2569FF"/>
<path d="M8.5 15C8.5 15.8284 7.82843 16.5 7 16.5C6.17157 16.5 5.5 15.8284 5.5 15C5.5 14.1716 6.17157 13.5 7 13.5C7.82843 13.5 8.5 14.1716 8.5 15Z" stroke="#6DD4FF" stroke-width="1.5"/>
<path d="M12 15H18.5" stroke="#6DD4FF" stroke-width="1.5" stroke-linecap="round"/>
<path d="M21.5833 5.39702C20.7574 3.40286 18.7924 2 16.4996 2C14.2069 2 12.2419 3.40286 11.416 5.39702" stroke="#6DD4FF" stroke-width="1.5" stroke-linecap="round"/>
<path d="M19.3797 6.65811C19.0158 5.41107 17.864 4.5 16.4994 4.5C15.1348 4.5 13.983 5.41107 13.6191 6.65811" stroke="#6DD4FF" stroke-width="1.5" stroke-linecap="round"/>
<path d="M16.75 7C16.75 7.13807 16.6381 7.25 16.5 7.25C16.3619 7.25 16.25 7.13807 16.25 7C16.25 6.86193 16.3619 6.75 16.5 6.75C16.6381 6.75 16.75 6.86193 16.75 7Z" fill="#6DD4FF" stroke="#6DD4FF" stroke-width="1.5"/>
</svg>
