<svg width="24" height="24" viewBox="0 0 24 24" fill="none" xmlns="http://www.w3.org/2000/svg">
<path d="M20.5902 10.5505V7.12045C20.5902 5.89045 19.6502 4.53045 18.5002 4.10046L13.5102 2.23046C12.6802 1.92046 11.3202 1.92046 10.4902 2.23046L5.50016 4.11046C4.35016 4.54046 3.41016 5.90045 3.41016 7.12045V14.5505C3.41016 15.7305 4.19016 17.2805 5.14016 17.9905L9.44016 21.2005C10.1402 21.7405 11.0702 22.0005 12.0002 22.0005" stroke="#2569FF" stroke-width="1.5" stroke-linecap="round" stroke-linejoin="round"/>
<path d="M17.625 21.2988C19.9032 21.2988 21.75 19.452 21.75 17.1738C21.75 14.8957 19.9032 13.0488 17.625 13.0488C15.3468 13.0488 13.5 14.8957 13.5 17.1738C13.5 19.452 15.3468 21.2988 17.625 21.2988Z" stroke="#0AA6EF" stroke-width="1.5" stroke-miterlimit="10" stroke-linecap="round" stroke-linejoin="round"/>
<path d="M15.9941 17.0779H19.2191" stroke="#0AA6EF" stroke-width="1.5" stroke-miterlimit="10" stroke-linecap="round" stroke-linejoin="round"/>
</svg>
