<svg width="24" height="24" viewBox="0 0 24 24" fill="none" xmlns="http://www.w3.org/2000/svg">
<path d="M10.4901 2.22957L5.50015 4.09957C4.35015 4.52957 3.41016 5.88957 3.41016 7.11957V14.5496C3.41016 15.7296 4.19017 17.2796 5.14017 17.9896L9.44016 21.1996C10.8502 22.2596 13.1701 22.2596 14.5801 21.1996L18.8802 17.9896C19.8302 17.2796 20.6101 15.7296 20.6101 14.5496V7.11957C20.6101 5.88957 19.6701 4.52957 18.5201 4.09957L13.5302 2.22957C12.6802 1.91957 11.3201 1.91957 10.4901 2.22957Z" stroke="#0AA6EF" stroke-width="1.5" stroke-linecap="round" stroke-linejoin="round"/>
<path d="M12 16C14.4853 16 16.5 13.9853 16.5 11.5C16.5 9.01472 14.4853 7 12 7C9.51472 7 7.5 9.01472 7.5 11.5C7.5 13.9853 9.51472 16 12 16Z" stroke="#0AA6EF" stroke-width="1.5" stroke-miterlimit="10" stroke-linecap="round" stroke-linejoin="round"/>
<path d="M12.2812 10.0938V11.14C12.2812 11.5338 12.0788 11.905 11.73 12.1075L10.875 12.625" stroke="#0AA6EF" stroke-width="1.5" stroke-miterlimit="10" stroke-linecap="round" stroke-linejoin="round"/>
</svg>
