<svg width="382" height="167" viewBox="0 0 382 167" fill="none" xmlns="http://www.w3.org/2000/svg">
<path fill-rule="evenodd" clip-rule="evenodd" d="M226.788 8.87414C224.084 3.43736 218.535 0 212.463 0H16.1113C7.27477 0 0.111328 7.16344 0.111328 16V39.9443C0.111328 39.9751 0.0864065 40 0.0556641 40C0.0249217 40 0 40.0249 0 40.0557V151C0 159.837 7.16345 167 16 167H366C374.837 167 382 159.837 382 151V56C382 47.1634 374.837 40 366 40H252.182C246.11 40 240.561 36.5626 237.857 31.1259L226.788 8.87414Z" fill="white"/>
</svg>
