<svg width="160" height="160" viewBox="0 0 160 160" fill="none" xmlns="http://www.w3.org/2000/svg">
<ellipse opacity="0.3" cx="80" cy="107.5" rx="69" ry="35.5" fill="#BBBBBB"/>
<path d="M63.6081 60.0237L75.6368 53.0048C76.5366 52.4797 77.6485 52.4759 78.5518 52.9947L137.84 87.0461C138.805 87.6008 138.815 88.9905 137.857 89.5585L125.472 96.9034C124.564 97.4422 123.435 97.4462 122.522 96.9138L63.6081 62.5364C62.6461 61.975 62.6461 60.5851 63.6081 60.0237Z" fill="white"/>
<path d="M61.4551 80.4124V63.8133C61.4551 62.6906 62.673 61.9912 63.6427 62.557L122.558 96.9348C123.451 97.4562 124.001 98.4129 124.001 99.4474V116.046C124.001 117.169 122.783 117.869 121.813 117.303L62.898 82.925C62.0045 82.4036 61.4551 81.4469 61.4551 80.4124Z" fill="#CBCBCB"/>
<path d="M126.139 96.5082L137.804 89.5896C138.774 89.0146 140.001 89.7134 140.001 90.8407V106.604C140.001 108.145 139.188 109.572 137.863 110.358L126.197 117.276C125.228 117.851 124.001 117.152 124.001 116.025V100.261C124.001 98.7207 124.813 97.2941 126.139 96.5082Z" fill="#464646"/>
<path d="M65.334 101.631L91.1522 86.6673L108.97 96.8863L83.1522 111.85L65.334 101.631Z" fill="#464646"/>
<path d="M58.1816 89.7472L83.9998 74.7837L101.818 85.0027L75.9998 99.9662L58.1816 89.7472Z" fill="white"/>
<path d="M101.788 60.7998L114.181 53.4502C115.147 52.877 116.371 53.5695 116.377 54.6931L116.718 115.464C116.723 116.49 116.188 117.443 115.309 117.973L102.568 125.646C101.599 126.229 100.363 125.531 100.363 124.399V63.3019C100.363 62.2748 100.905 61.3238 101.788 60.7998Z" fill="#7D7D7D"/>
<path d="M86.1709 50.8976L98.1508 43.9506C99.5178 43.1579 101.207 43.1661 102.566 43.9722L114.255 50.9048C115.205 51.4683 115.205 52.8435 114.255 53.4069L102.566 60.3395C101.207 61.1456 99.5178 61.1538 98.1508 60.3611L86.1709 53.4141C85.2044 52.8537 85.2044 51.458 86.1709 50.8976Z" fill="white"/>
<path d="M20 103.664V88.2651C20 87.1424 21.2179 86.4429 22.1876 87.0088L80.381 120.966C81.7213 121.748 82.5455 123.183 82.5455 124.734V140.134C82.5455 141.256 81.3275 141.956 80.3578 141.39L22.1644 107.433C20.8241 106.651 20 105.216 20 103.664Z" fill="#CBCBCB"/>
<path d="M98.9135 60.8043L86.1839 53.4226C85.2142 52.8603 83.9996 53.5599 83.9996 54.6809V115.475C83.9996 116.495 84.534 117.441 85.408 117.967L98.1583 125.646C99.1278 126.229 100.363 125.531 100.363 124.399V63.3209C100.363 62.2835 99.8109 61.3247 98.9135 60.8043Z" fill="#CBCBCB"/>
<path d="M84.6836 120.961L96.3494 114.043C97.319 113.468 98.5459 114.167 98.5459 115.294V130.693C98.5459 132.233 97.7334 133.66 96.4082 134.446L84.7424 141.364C83.7728 141.939 82.5459 141.241 82.5459 140.113V124.715C82.5459 123.174 83.3584 121.747 84.6836 120.961Z" fill="#464646"/>
<path d="M22.153 84.4755L34.1818 77.4565C35.0815 76.9315 36.1934 76.9277 37.0968 77.4465L96.3844 111.498C97.3501 112.053 97.3598 113.442 96.402 114.01L84.0174 121.355C83.1089 121.894 81.9797 121.898 81.0673 121.366L22.153 86.9881C21.191 86.4268 21.191 85.0368 22.153 84.4755Z" fill="white"/>
<circle cx="100" cy="32.6667" r="16" fill="#CBCBCB"/>
<path d="M100.166 40.5826C100.166 40.5365 100.203 40.4992 100.249 40.4992C100.295 40.4992 100.332 40.5365 100.332 40.5826C100.332 40.6286 100.295 40.6659 100.249 40.6659C100.203 40.6659 100.166 40.6286 100.166 40.5826Z" fill="white" stroke="white" stroke-width="2.66667"/>
<path d="M102.668 36.8449C102.002 36.4244 101.212 36.1811 100.366 36.1811C99.5201 36.1811 98.7308 36.4244 98.0645 36.8449" stroke="white" stroke-width="2.66667" stroke-linecap="round"/>
<path d="M106.134 32.95C104.534 31.7259 102.535 30.9986 100.365 30.9986C98.1951 30.9986 96.1952 31.7259 94.5957 32.95" stroke="white" stroke-width="2.66667" stroke-linecap="round"/>
<path d="M109.401 28.9252C106.909 26.977 103.772 25.816 100.364 25.816C96.9558 25.816 93.8189 26.977 91.3271 28.9252" stroke="white" stroke-width="2.66667" stroke-linecap="round"/>
</svg>
