<svg width="25" height="25" viewBox="0 0 25 25" fill="none" xmlns="http://www.w3.org/2000/svg">
<path d="M17.0095 12.7298C17.6004 12.7298 18.0794 12.2507 18.0794 11.6598C18.0794 11.0688 17.6004 10.5898 17.0095 10.5898C16.4185 10.5898 15.9395 11.0688 15.9395 11.6598C15.9395 12.2507 16.4185 12.7298 17.0095 12.7298Z" stroke="#3D3D3D" stroke-width="1.5" stroke-linecap="round" stroke-linejoin="round"/>
<path d="M20 6V7.78998C19.75 7.75998 19.46 7.73999 19.15 7.73999H14.87C12.73 7.73999 12.02 8.45003 12.02 10.59V15.7H6C2.8 15.7 2 14.9 2 11.7V6C2 2.8 2.8 2 6 2H16C19.2 2 20 2.8 20 6Z" stroke="#3D3D3D" stroke-width="1.5" stroke-linecap="round" stroke-linejoin="round"/>
<path d="M9 15.7V20" stroke="#3D3D3D" stroke-width="1.5" stroke-linecap="round" stroke-linejoin="round"/>
<path d="M2 11.9H12" stroke="#3D3D3D" stroke-width="1.5" stroke-linecap="round" stroke-linejoin="round"/>
<path d="M5.94922 20H11.9992" stroke="#3D3D3D" stroke-width="1.5" stroke-linecap="round" stroke-linejoin="round"/>
<path d="M17.0095 12.7302C17.6004 12.7302 18.0794 12.2512 18.0794 11.6602C18.0794 11.0693 17.6004 10.5903 17.0095 10.5903C16.4185 10.5903 15.9395 11.0693 15.9395 11.6602C15.9395 12.2512 16.4185 12.7302 17.0095 12.7302Z" stroke="#3D3D3D" stroke-width="1.5" stroke-miterlimit="10" stroke-linecap="round" stroke-linejoin="round"/>
<path d="M19.9995 7.79022C19.7495 7.76022 19.4595 7.74023 19.1495 7.74023H14.8695C12.7295 7.74023 12.0195 8.45027 12.0195 10.5903V19.1503C12.0195 21.2903 12.7295 22.0002 14.8695 22.0002H19.1495C21.2895 22.0002 21.9995 21.2903 21.9995 19.1503V10.5903C21.9995 8.76027 21.4795 7.98022 19.9995 7.79022ZM17.0096 10.5903C17.5996 10.5903 18.0795 11.0702 18.0795 11.6602C18.0795 12.2502 17.5996 12.7302 17.0096 12.7302C16.4196 12.7302 15.9395 12.2502 15.9395 11.6602C15.9395 11.0702 16.4196 10.5903 17.0096 10.5903ZM17.0096 19.1503C15.8296 19.1503 14.8695 18.1903 14.8695 17.0103C14.8695 16.5203 15.0395 16.0603 15.3195 15.7003C15.7095 15.2003 16.3196 14.8702 17.0096 14.8702C17.5496 14.8702 18.0395 15.0703 18.4095 15.3903C18.8595 15.7903 19.1495 16.3703 19.1495 17.0103C19.1495 18.1903 18.1896 19.1503 17.0096 19.1503Z" stroke="#3D3D3D" stroke-width="1.5" stroke-miterlimit="10" stroke-linecap="round" stroke-linejoin="round"/>
<path d="M19.1491 17.0101C19.1491 18.1901 18.1892 19.1501 17.0092 19.1501C15.8292 19.1501 14.8691 18.1901 14.8691 17.0101C14.8691 16.5201 15.0392 16.0601 15.3192 15.7001C15.7092 15.2001 16.3192 14.8701 17.0092 14.8701C17.5492 14.8701 18.0391 15.0701 18.4091 15.3901C18.8591 15.7901 19.1491 16.3701 19.1491 17.0101Z" stroke="#3D3D3D" stroke-width="1.5" stroke-miterlimit="10" stroke-linecap="round" stroke-linejoin="round"/>
<path d="M17.0095 12.7302C17.6004 12.7302 18.0794 12.2512 18.0794 11.6602C18.0794 11.0693 17.6004 10.5903 17.0095 10.5903C16.4185 10.5903 15.9395 11.0693 15.9395 11.6602C15.9395 12.2512 16.4185 12.7302 17.0095 12.7302Z" stroke="#3D3D3D" stroke-width="1.5" stroke-miterlimit="10" stroke-linecap="round" stroke-linejoin="round"/>
<circle cx="19" cy="19" r="5.5" fill="white" stroke="white"/>
<path d="M19.0247 22.0207C19.0247 21.977 19.0601 21.9415 19.1038 21.9415C19.1476 21.9415 19.183 21.977 19.183 22.0207C19.183 22.0644 19.1476 22.0999 19.1038 22.0999C19.0601 22.0999 19.0247 22.0644 19.0247 22.0207Z" fill="#17BA58" stroke="#17BA58" stroke-width="1.2"/>
<path d="M20.1115 20.4633C19.8339 20.2881 19.505 20.1867 19.1524 20.1867C18.7999 20.1867 18.471 20.2881 18.1934 20.4633" stroke="#17BA58" stroke-width="1.2" stroke-linecap="round"/>
<path d="M21.5557 18.8404C20.8892 18.3304 20.0559 18.0273 19.1519 18.0273C18.2478 18.0273 17.4145 18.3304 16.748 18.8404" stroke="#17BA58" stroke-width="1.2" stroke-linecap="round"/>
<path d="M22.9174 17.1634C21.8791 16.3517 20.5721 15.8679 19.152 15.8679C17.732 15.8679 16.425 16.3517 15.3867 17.1634" stroke="#17BA58" stroke-width="1.2" stroke-linecap="round"/>
</svg>
