<svg width="25" height="25" viewBox="0 0 25 25" fill="none" xmlns="http://www.w3.org/2000/svg">
<path d="M10 20C6.22876 20 4.34315 20 3.17157 18.8284C2 17.6569 2 15.7712 2 12C2 8.22876 2 6.34315 3.17157 5.17157C4.34315 4 6.22876 4 10 4L14 4C17.7712 4 19.6569 4 20.8284 5.17157C22 6.34315 22 8.22876 22 12C22 15.7712 22 17.6569 20.8284 18.8284C19.6569 20 17.7712 20 14 20H10Z" stroke="#3D3D3D" stroke-width="1.5"/>
<path d="M15 17H9" stroke="#3D3D3D" stroke-width="1.5" stroke-linecap="round"/>
<circle cx="19" cy="19" r="5.5" fill="white" stroke="white"/>
<circle cx="19" cy="19" r="4.4" fill="white" stroke="#FF2156" stroke-width="1.2"/>
<path d="M22 16L16 22" stroke="#FF2156" stroke-width="1.2"/>
</svg>
