<svg width="25" height="25" viewBox="0 0 25 25" fill="none" xmlns="http://www.w3.org/2000/svg">
<path d="M2 3.88112C2 3.39449 2.40701 3 2.90909 3H21.0909C21.593 3 22 3.39449 22 3.88112V6.96503C22 7.45166 21.593 7.84615 21.0909 7.84615H2.90909C2.40701 7.84615 2 7.45166 2 6.96503V3.88112Z" stroke="#3D3D3D" stroke-width="1.5"/>
<path d="M14.1429 14.7692C14.1429 15.9163 13.1835 16.8462 12 16.8462C10.8165 16.8462 9.85714 15.9163 9.85714 14.7692C9.85714 13.6222 10.8165 12.6923 12 12.6923C13.1835 12.6923 14.1429 13.6222 14.1429 14.7692Z" stroke="#3D3D3D" stroke-width="1.5"/>
<path d="M2.71429 7.84615H21.2857V12C21.2857 16.9706 17.1284 21 12 21C6.87164 21 2.71429 16.9706 2.71429 12V7.84615Z" stroke="#3D3D3D" stroke-width="1.5"/>
<circle cx="19" cy="19" r="5.5" fill="white" stroke="white"/>
<path d="M19.0247 22.0207C19.0247 21.977 19.0601 21.9415 19.1038 21.9415C19.1476 21.9415 19.183 21.977 19.183 22.0207C19.183 22.0644 19.1476 22.0999 19.1038 22.0999C19.0601 22.0999 19.0247 22.0644 19.0247 22.0207Z" fill="#17BA58" stroke="#17BA58" stroke-width="1.2"/>
<path d="M20.1115 20.4634C19.8339 20.2882 19.505 20.1868 19.1524 20.1868C18.7999 20.1868 18.471 20.2882 18.1934 20.4634" stroke="#17BA58" stroke-width="1.2" stroke-linecap="round"/>
<path d="M21.5557 18.8404C20.8892 18.3304 20.0559 18.0273 19.1519 18.0273C18.2478 18.0273 17.4145 18.3304 16.748 18.8404" stroke="#17BA58" stroke-width="1.2" stroke-linecap="round"/>
<path d="M22.9174 17.1634C21.8791 16.3517 20.5721 15.8679 19.152 15.8679C17.732 15.8679 16.425 16.3517 15.3867 17.1634" stroke="#17BA58" stroke-width="1.2" stroke-linecap="round"/>
</svg>
