<svg width="24" height="24" viewBox="0 0 24 24" fill="none" xmlns="http://www.w3.org/2000/svg">
<path d="M22.1297 11.9942C22.1192 6.38913 17.5986 1.87373 11.9995 1.87671C6.39667 1.8797 1.87902 6.39585 1.87305 11.9987C1.86708 17.6038 6.41981 22.1505 12.0174 22.1304C17.6285 22.111 22.1401 17.5881 22.1297 11.9942Z" stroke="#2569FF" stroke-width="1.5" stroke-miterlimit="10" stroke-linecap="round"/>
<path d="M4.25816 12.046C4.24174 11.8989 4.25518 11.7489 4.25518 11.5997C4.44251 8.10749 6.91889 5.29376 10.0774 4.4989C11.806 4.06378 13.4912 4.20782 15.128 4.91163" stroke="#0AA6EF" stroke-width="1.5" stroke-miterlimit="10" stroke-linecap="round" stroke-linejoin="round"/>
<path d="M19.0664 8.82007C19.4642 9.703 19.6904 10.6277 19.7501 11.5957C19.7501 11.7443 19.762 11.8943 19.7478 12.0421" stroke="#0AA6EF" stroke-width="1.5" stroke-miterlimit="10" stroke-linecap="round" stroke-linejoin="round"/>
<path d="M13.6758 10.2925L17.9665 6.00171" stroke="#0AA6EF" stroke-width="1.5" stroke-miterlimit="10" stroke-linecap="round" stroke-linejoin="round"/>
<path d="M12.0013 14.4741C13.3418 14.4741 14.4285 13.3875 14.4285 12.047C14.4285 10.7065 13.3418 9.61987 12.0013 9.61987C10.6609 9.61987 9.57422 10.7065 9.57422 12.047C9.57422 13.3875 10.6609 14.4741 12.0013 14.4741Z" stroke="#2569FF" stroke-width="1.5" stroke-miterlimit="10" stroke-linecap="round"/>
</svg>
