<svg width="160" height="160" viewBox="0 0 160 160" fill="none" xmlns="http://www.w3.org/2000/svg">
<ellipse opacity="0.3" cx="80" cy="119.417" rx="62" ry="28" fill="#B8B8B8"/>
<path d="M74.668 125.25H85.3346L83.0092 143.271C82.8141 144.784 81.5263 145.916 80.0013 145.916C78.4763 145.916 77.1885 144.784 76.9934 143.271L74.668 125.25Z" fill="#464646"/>
<path d="M32.1895 97.2498L42.4927 100.011L35.5821 116.817C35.0021 118.227 33.4651 118.987 31.9921 118.593C30.5191 118.198 29.5683 116.771 29.7712 115.259L32.1895 97.2498Z" fill="#464646"/>
<path d="M127.638 97.2498L117.334 100.011L124.245 116.817C124.825 118.227 126.362 118.987 127.835 118.593C129.308 118.198 130.259 116.771 130.056 115.259L127.638 97.2498Z" fill="#464646"/>
<path d="M32.0157 40.174L76.6762 14.4942C78.7337 13.3111 81.265 13.3111 83.3225 14.4942L127.983 40.174C131.293 42.0769 133.333 45.6034 133.333 49.421V52.5834H26.666V49.421C26.666 45.6034 28.7062 42.0769 32.0157 40.174Z" fill="#464646"/>
<path d="M36.7171 92.1371L79.9993 67.2498L123.282 92.1371C127.74 94.7005 127.74 101.132 123.282 103.696L83.3225 126.672C81.265 127.855 78.7337 127.855 76.6762 126.672L36.7171 103.696C32.2591 101.132 32.2591 94.7005 36.7171 92.1371Z" fill="#464646"/>
<path d="M79.9993 122.822V77.774C79.9993 75.3881 78.7242 73.184 76.6558 71.9947L31.6609 46.1226C29.4387 44.8448 26.666 46.4489 26.666 49.0123V94.0603C26.666 96.4463 27.9411 98.6504 30.0095 99.8397L75.0044 125.712C77.2267 126.99 79.9993 125.385 79.9993 122.822Z" fill="#CBCBCB"/>
<path d="M31.6916 40.3604L76.6762 14.4942C78.7337 13.3111 81.265 13.3111 83.3225 14.4942L128.307 40.3604C130.536 41.642 130.536 44.858 128.307 46.1397L83.3225 72.0059C81.265 73.189 78.7337 73.189 76.6762 72.0059L31.6916 46.1397C29.4625 44.858 29.4625 41.642 31.6916 40.3604Z" fill="white"/>
<path d="M65.5493 37.4521L66.8378 36.7208C75.0014 32.0874 84.9999 32.0874 93.1635 36.7208L94.452 37.4521C98.9532 40.0069 98.9532 46.4932 94.452 49.0479L93.1635 49.7793C84.9999 54.4126 75.0014 54.4126 66.8378 49.7793L65.5493 49.0479C61.0481 46.4932 61.0481 40.0069 65.5493 37.4521Z" fill="#CBCBCB"/>
<path d="M73 80.7607V116.117C73 116.63 72.444 116.951 71.9996 116.694L35.9968 95.8744C34.3485 94.9212 33.3333 93.1615 33.3333 91.2574V55.8785C33.3333 55.365 33.8896 55.0443 34.334 55.3016L70.3387 76.145C71.9858 77.0986 73 78.8575 73 80.7607Z" fill="#464646" stroke="#7D7D7D" stroke-width="2.66667"/>
<path d="M133.333 49.0113V94.0594C133.333 96.4453 132.058 98.6494 129.99 99.8387L84.9949 125.711C82.7727 126.989 80 125.385 80 122.821V77.7731C80 75.3871 81.2751 73.183 83.3435 71.9937L128.338 46.1216C130.561 44.8438 133.333 46.4479 133.333 49.0113Z" fill="#A8A8A8"/>
<path d="M61 20.2496L71.6667 39.2496" stroke="#464646" stroke-width="3.33333" stroke-linecap="round"/>
<path d="M82.334 43.917L108.667 24.5836" stroke="#464646" stroke-width="3.33333" stroke-linecap="round"/>
</svg>
