<svg width="24" height="24" viewBox="0 0 24 24" fill="none" xmlns="http://www.w3.org/2000/svg">
<g id="Frame 958476155">
<path id="Vector" fill-rule="evenodd" clip-rule="evenodd" d="M8.68183 19.7218C8.57583 19.8288 8.44967 19.9138 8.31064 19.9717C8.17161 20.0297 8.02247 20.0596 7.87183 20.0596C7.72119 20.0596 7.57205 20.0297 7.43302 19.9717C7.29399 19.9138 7.16783 19.8288 7.06183 19.7218L0.411833 13.0618C0.148025 12.7958 0 12.4364 0 12.0618C0 11.6872 0.148025 11.3277 0.411833 11.0618L7.06183 4.41176C7.16427 4.28941 7.29105 4.18971 7.43411 4.11902C7.57718 4.04832 7.73338 4.00817 7.8928 4.00112C8.05222 3.99407 8.21136 4.02028 8.36011 4.07808C8.50885 4.13587 8.64393 4.22399 8.75677 4.33683C8.86961 4.44966 8.95772 4.58475 9.01552 4.73349C9.07332 4.88223 9.09952 5.04138 9.09247 5.2008C9.08543 5.36021 9.04528 5.51642 8.97458 5.65948C8.90388 5.80254 8.80419 5.92933 8.68183 6.03177L2.63183 12.0318L8.68183 18.0818C8.79192 18.1881 8.87947 18.3155 8.93926 18.4564C8.99906 18.5972 9.02987 18.7487 9.02987 18.9018C9.02987 19.0548 8.99906 19.2063 8.93926 19.3472C8.87947 19.488 8.79192 19.6154 8.68183 19.7218Z" fill="#333333"/>
</g>
</svg>
