<svg width="24" height="24" viewBox="0 0 24 24" fill="none" xmlns="http://www.w3.org/2000/svg">
<path d="M20 6V7.78998C19.75 7.75998 19.46 7.73999 19.15 7.73999H14.87C12.73 7.73999 12.02 8.45003 12.02 10.59V15.7H6C2.8 15.7 2 14.9 2 11.7V6C2 2.8 2.8 2 6 2H16C19.2 2 20 2.8 20 6Z" stroke="#2569FF" stroke-width="1.5" stroke-linecap="round" stroke-linejoin="round"/>
<path d="M9 15.7V20" stroke="#2569FF" stroke-width="1.5" stroke-linecap="round" stroke-linejoin="round"/>
<path d="M2 11.9H12" stroke="#2569FF" stroke-width="1.5" stroke-linecap="round" stroke-linejoin="round"/>
<path d="M5.94922 20H11.9992" stroke="#2569FF" stroke-width="1.5" stroke-linecap="round" stroke-linejoin="round"/>
<path d="M19.13 7.74023C19.44 7.74023 19.73 7.76022 19.98 7.79022C21.46 7.98022 21.98 8.76027 21.98 10.5903V19.1503C21.98 21.2903 21.27 22.0002 19.13 22.0002H14.85C12.71 22.0002 12 21.2903 12 19.1503V10.5903C12 8.45027 12.71 7.74023 14.85 7.74023H19.13Z" stroke="#0AA6EF" stroke-width="1.5" stroke-miterlimit="10" stroke-linecap="round" stroke-linejoin="round"/>
<path d="M17.9153 10H16.0996" stroke="#0AA6EF" stroke-width="1.5" stroke-miterlimit="10" stroke-linecap="round" stroke-linejoin="round"/>
</svg>
