<svg width="24" height="24" viewBox="0 0 24 24" fill="none" xmlns="http://www.w3.org/2000/svg">
<path d="M20.5902 10.5551V7.12506C20.5902 5.89506 19.6502 4.53506 18.5002 4.10506L13.5102 2.23506C12.6802 1.92506 11.3202 1.92506 10.4902 2.23506L5.50016 4.11506C4.35016 4.54506 3.41016 5.90506 3.41016 7.12506V14.5551C3.41016 15.7351 4.19016 17.2851 5.14016 17.9951L9.44016 21.2051C10.1402 21.7451 11.0702 22.0051 12.0002 22.0051" stroke="#2569FF" stroke-width="1.5" stroke-linecap="round" stroke-linejoin="round"/>
<path d="M17.625 21.3035C19.9032 21.3035 21.75 19.4566 21.75 17.1785C21.75 14.9003 19.9032 13.0535 17.625 13.0535C15.3468 13.0535 13.5 14.9003 13.5 17.1785C13.5 19.4566 15.3468 21.3035 17.625 21.3035Z" stroke="#6DD4FF" stroke-width="1.5" stroke-miterlimit="10" stroke-linecap="round" stroke-linejoin="round"/>
<path d="M15.9941 17.0825H19.2191" stroke="#6DD4FF" stroke-width="1.5" stroke-miterlimit="10" stroke-linecap="round" stroke-linejoin="round"/>
</svg>
