<svg width="22" height="24" viewBox="0 0 22 24" fill="none" xmlns="http://www.w3.org/2000/svg">
<path d="M10.9514 0.00463867L7.11464 1.08543L0.629883 2.9552V8.43482C0.629883 8.86714 0.62987 9.29945 0.683909 9.73177C0.908853 12.8167 1.99064 15.7775 3.80741 18.2808C5.54727 20.6965 7.89172 22.6123 10.6056 23.8361L10.9839 24.009L11.3621 23.8361C11.7728 23.6524 12.1728 23.447 12.5618 23.2309C12.9509 23.0147 13.394 22.7769 13.7399 22.55C14.1715 22.2868 14.5769 21.9828 14.9504 21.6421C16.1785 20.678 17.2694 19.5507 18.1928 18.2916C20.008 15.7875 21.0896 12.8271 21.3162 9.74257C21.3162 9.31025 21.3703 8.87794 21.3703 8.43482V2.96601L10.9514 0.00463867Z" fill="url(#paint0_linear_4706_6954)"/>
<path d="M13.8218 9.16404C13.0474 9.09793 12.2219 9.06229 11.3661 9.06229C9.82441 9.06229 8.38321 9.17799 7.15585 9.3784C6.76115 9.44296 6.3881 9.51631 6.04133 9.5974C5.66724 9.68469 5.40137 10.0199 5.40137 10.4099V11.4181C5.40137 11.4605 5.40188 11.5034 5.40291 11.5457C5.41476 12.1222 5.507 12.6883 5.67343 13.2291C5.85119 13.806 6.11295 14.354 6.45045 14.854C6.69005 15.2089 6.96778 15.5395 7.28106 15.839L11.0348 19.4278C11.2208 19.6055 11.5104 19.6055 11.6964 19.4278L15.4501 15.839C15.7634 15.5395 16.0411 15.2089 16.2807 14.854C16.6187 14.354 16.8805 13.8065 17.0577 13.2291C17.2365 12.6485 17.3298 12.0385 17.3298 11.4181V7.27771C17.3298 6.62482 16.8758 6.06388 16.2451 5.9363C14.8879 5.66151 13.1979 5.49829 11.3656 5.49829C9.53328 5.49829 7.84321 5.66151 6.486 5.9363C5.85532 6.06388 5.40137 6.62482 5.40137 7.27771V7.97191C5.40137 7.97708 5.406 7.98069 5.41064 7.97914C5.92179 7.8309 6.50867 7.70177 7.15533 7.59588C8.3827 7.39547 9.82389 7.27977 11.3656 7.27977C12.747 7.27977 14.0599 7.35983 15.2007 7.52099C15.4248 7.5525 15.5908 7.74774 15.5897 7.97811L15.5758 11.4465C15.5758 11.9403 15.4913 12.4248 15.3321 12.8804C15.1116 13.5095 14.7473 14.0834 14.2608 14.5514C14.2444 14.5674 14.2284 14.5829 14.2114 14.5984L11.5171 17.1076C11.4315 17.1872 11.3001 17.1877 11.2136 17.1087L8.65218 14.7585C8.58107 14.6934 8.61611 14.5736 8.71041 14.5591C9.57914 14.4279 10.5545 14.3411 11.5593 14.3034C12.2657 14.2766 12.8774 13.7952 13.086 13.1087L13.219 12.6707L13.2113 12.6593C12.6182 12.6221 12.0009 12.6025 11.3656 12.6025C9.99754 12.6025 8.70886 12.6934 7.57837 12.8541C7.47016 12.8696 7.36968 12.8014 7.33774 12.695C7.2182 12.2952 7.15533 11.8763 7.15533 11.4502V11.3515C7.15533 11.241 7.23417 11.147 7.34186 11.1304C8.39455 10.9729 10.2959 10.7931 12.1163 10.7859C12.8629 10.7828 13.5163 10.2751 13.7167 9.5442L13.8213 9.16352L13.8218 9.16404Z" fill="white"/>
<defs>
<linearGradient id="paint0_linear_4706_6954" x1="11.0001" y1="0.00463867" x2="11.0001" y2="24.009" gradientUnits="userSpaceOnUse">
<stop stop-color="#FF8F4B"/>
<stop offset="1" stop-color="#FF5C00"/>
</linearGradient>
</defs>
</svg>
