<svg width="25" height="25" viewBox="0 0 25 25" fill="none" xmlns="http://www.w3.org/2000/svg">
<path d="M20.5 15V10C20.5 7.17157 20.5 5.75736 19.6213 4.87868C18.7426 4 17.3284 4 14.5 4H9.5C6.67157 4 5.25736 4 4.37868 4.87868C3.5 5.75736 3.5 7.17157 3.5 10V15" stroke="#3D3D3D" stroke-width="1.5"/>
<path d="M5 20H19C20.6569 20 22 18.6569 22 17V16C22 15.4477 21.5523 15 21 15H16.6667C16.2339 15 15.8129 15.1404 15.4667 15.4L14.5333 16.1C14.1871 16.3596 13.7661 16.5 13.3333 16.5H10.6667C10.2339 16.5 9.81286 16.3596 9.46667 16.1L8.53333 15.4C8.18714 15.1404 7.76607 15 7.33333 15H3C2.44772 15 2 15.4477 2 16V17C2 18.6569 3.34315 20 5 20Z" stroke="#3D3D3D" stroke-width="1.5" stroke-linecap="round"/>
<circle cx="19" cy="19" r="5.5" fill="white" stroke="white"/>
<path d="M19.0247 22.0207C19.0247 21.977 19.0601 21.9415 19.1038 21.9415C19.1476 21.9415 19.183 21.977 19.183 22.0207C19.183 22.0644 19.1476 22.0999 19.1038 22.0999C19.0601 22.0999 19.0247 22.0644 19.0247 22.0207Z" fill="#17BA58" stroke="#17BA58" stroke-width="1.2"/>
<path d="M20.1115 20.4634C19.8339 20.2882 19.505 20.1868 19.1524 20.1868C18.7999 20.1868 18.471 20.2882 18.1934 20.4634" stroke="#17BA58" stroke-width="1.2" stroke-linecap="round"/>
<path d="M21.5557 18.8404C20.8892 18.3304 20.0559 18.0273 19.1519 18.0273C18.2478 18.0273 17.4145 18.3304 16.748 18.8404" stroke="#D1D1D1" stroke-width="1.2" stroke-linecap="round"/>
<path d="M22.9174 17.1634C21.8791 16.3517 20.5721 15.8679 19.152 15.8679C17.732 15.8679 16.425 16.3517 15.3867 17.1634" stroke="#D1D1D1" stroke-width="1.2" stroke-linecap="round"/>
</svg>
