<svg width="24" height="24" viewBox="0 0 24 24" fill="none" xmlns="http://www.w3.org/2000/svg">
<g id="Icon/share">
<path id="Subtract" fill-rule="evenodd" clip-rule="evenodd" d="M5.99805 8.25C3.37469 8.25 1.24805 10.3766 1.24805 13V18C1.24805 20.6234 3.37469 22.75 5.99805 22.75H17.998C20.6214 22.75 22.748 20.6234 22.748 18V13C22.748 10.3766 20.6214 8.25 17.998 8.25V9.75C19.793 9.75 21.248 11.2051 21.248 13V18C21.248 19.7949 19.793 21.25 17.998 21.25H5.99805C4.20312 21.25 2.74805 19.7949 2.74805 18V13C2.74805 11.2051 4.20312 9.75 5.99805 9.75V8.25Z" fill="#464646"/>
<path id="Icon" d="M7.99805 6L11.998 2M11.998 2L15.998 6M11.998 2V14" stroke="#464646" stroke-width="1.5" stroke-linecap="round" stroke-linejoin="round"/>
</g>
</svg>
