<svg width="58" height="58" viewBox="0 0 58 58" fill="none" xmlns="http://www.w3.org/2000/svg">
<path d="M31.1109 10.3704H24.8887" stroke="#3D3D3D" stroke-width="3.5" stroke-linecap="round" stroke-linejoin="round"/>
<rect x="11.4072" y="4.14813" width="33.1852" height="48.7407" rx="7.77778" stroke="#3D3D3D" stroke-width="3.5"/>
<circle cx="47" cy="47" r="9.9" fill="white" stroke="white" stroke-width="1.8"/>
<path d="M47.044 52.4373C47.044 52.3586 47.1078 52.2948 47.1865 52.2948C47.2652 52.2948 47.329 52.3586 47.329 52.4373C47.329 52.516 47.2652 52.5798 47.1865 52.5798C47.1078 52.5798 47.044 52.516 47.044 52.4373Z" fill="#17BA58" stroke="#17BA58" stroke-width="2.16"/>
<path d="M49.0005 49.6339C48.5008 49.3186 47.9088 49.136 47.2742 49.136C46.6396 49.136 46.0476 49.3186 45.5479 49.6339" stroke="#17BA58" stroke-width="2.16" stroke-linecap="round"/>
<path d="M51.6 46.7127C50.4003 45.7947 48.9004 45.2492 47.2731 45.2492C45.6458 45.2492 44.1459 45.7947 42.9463 46.7127" stroke="#17BA58" stroke-width="2.16" stroke-linecap="round"/>
<path d="M54.0512 43.6942C52.1824 42.233 49.8297 41.3622 47.2737 41.3622C44.7176 41.3622 42.3649 42.233 40.4961 43.6942" stroke="#17BA58" stroke-width="2.16" stroke-linecap="round"/>
</svg>
