<svg width="25" height="25" viewBox="0 0 25 25" fill="none" xmlns="http://www.w3.org/2000/svg">
<path d="M13.3327 4.44434H10.666" stroke="#3D3D3D" stroke-width="1.5" stroke-linecap="round" stroke-linejoin="round"/>
<rect x="4.88867" y="1.77734" width="14.2222" height="20.8889" rx="3.33333" stroke="#3D3D3D" stroke-width="1.5"/>
<circle cx="19" cy="19" r="5.5" fill="white" stroke="white"/>
<path d="M19.0247 22.0207C19.0247 21.977 19.0601 21.9415 19.1038 21.9415C19.1476 21.9415 19.183 21.977 19.183 22.0207C19.183 22.0644 19.1476 22.0999 19.1038 22.0999C19.0601 22.0999 19.0247 22.0644 19.0247 22.0207Z" fill="#17BA58" stroke="#17BA58" stroke-width="1.2"/>
<path d="M20.1115 20.4634C19.8339 20.2882 19.505 20.1868 19.1524 20.1868C18.7999 20.1868 18.471 20.2882 18.1934 20.4634" stroke="#17BA58" stroke-width="1.2" stroke-linecap="round"/>
<path d="M21.5557 18.8404C20.8892 18.3304 20.0559 18.0273 19.1519 18.0273C18.2478 18.0273 17.4145 18.3304 16.748 18.8404" stroke="#D1D1D1" stroke-width="1.2" stroke-linecap="round"/>
<path d="M22.9174 17.1634C21.8791 16.3517 20.5721 15.8679 19.152 15.8679C17.732 15.8679 16.425 16.3517 15.3867 17.1634" stroke="#D1D1D1" stroke-width="1.2" stroke-linecap="round"/>
</svg>
