<svg width="240" height="240" viewBox="0 0 240 240" fill="none" xmlns="http://www.w3.org/2000/svg">
<path id="Vector" d="M0 0H67.2V67.2H0V0ZM76.8 0H96V9.6H86.4V19.2H96V28.8H76.8V0ZM134.4 0H144V9.6H134.4V0ZM172.8 0H240V67.2H172.8V0ZM9.6 9.6V57.6H57.6V9.6H9.6ZM153.6 9.6H163.2V76.8H172.8V86.4H163.2V96H153.6V105.6H144V96H134.4V124.8H144V115.2H153.6V124.8H163.2V134.4H153.6V144H144V134.4H134.4V144H115.2V153.6H105.6V163.2H134.4V153.6H144V172.8H115.2V182.4H105.6V172.8H86.4V192H96V201.6H105.6V220.8H96V230.4H86.4V211.2H76.8V163.2H96V144H105.6V134.4H124.8V124.8H86.4V134.4H76.8V115.2H115.2V105.6H124.8V76.8H115.2V86.4H105.6V76.8H86.4V67.2H96V57.6H105.6V67.2H115.2V57.6H124.8V67.2H134.4V86.4H153.6V76.8H144V67.2H153.6V9.6ZM182.4 9.6V57.6H230.4V9.6H182.4ZM19.2 19.2H48V48H19.2V19.2ZM105.6 19.2H115.2V28.8H105.6V19.2ZM124.8 19.2H144V28.8H134.4V38.4H144V67.2H134.4V48H124.8V19.2ZM192 19.2H220.8V48H192V19.2ZM96 28.8H105.6V38.4H115.2V48H96V28.8ZM76.8 38.4H86.4V48H76.8V38.4ZM76.8 57.6H86.4V67.2H76.8V57.6ZM0 76.8H9.6V86.4H0V76.8ZM28.8 76.8H86.4V86.4H76.8V96H67.2V86.4H48V105.6H38.4V86.4H28.8V76.8ZM192 76.8H201.6V86.4H211.2V76.8H240V86.4H230.4V96H211.2V105.6H230.4V96H240V124.8H230.4V115.2H201.6V96H192V105.6H163.2V96H182.4V86.4H192V76.8ZM9.6 86.4H28.8V96H9.6V86.4ZM86.4 86.4H105.6V96H96V105.6H76.8V96H86.4V86.4ZM0 96H9.6V115.2H0V96ZM57.6 96H67.2V105.6H57.6V96ZM105.6 96H115.2V105.6H105.6V96ZM67.2 105.6H76.8V115.2H67.2V105.6ZM19.2 115.2H48V124.8H19.2V115.2ZM57.6 115.2H67.2V124.8H57.6V115.2ZM172.8 115.2H182.4V124.8H172.8V115.2ZM0 124.8H19.2V144H9.6V163.2H0V124.8ZM48 124.8H57.6V134.4H67.2V144H57.6V153.6H67.2V144H76.8V163.2H28.8V153.6H19.2V144H28.8V134.4H38.4V144H48V124.8ZM192 124.8H201.6V134.4H220.8V124.8H230.4V134.4H240V153.6H230.4V144H220.8V153.6H230.4V172.8H211.2V153.6H201.6V144H192V124.8ZM172.8 134.4H182.4V144H192V153.6H201.6V201.6H182.4V211.2H172.8V220.8H163.2V211.2H153.6V201.6H144V240H124.8V230.4H134.4V201.6H115.2V182.4H124.8V192H134.4V182.4H153.6V144H172.8V134.4ZM163.2 163.2V192H192V163.2H163.2ZM0 172.8H67.2V240H0V172.8ZM172.8 172.8H182.4V182.4H172.8V172.8ZM230.4 172.8H240V182.4H230.4V172.8ZM9.6 182.4V230.4H57.6V182.4H9.6ZM220.8 182.4H230.4V192H220.8V182.4ZM19.2 192H48V220.8H19.2V192ZM230.4 192H240V240H230.4V230.4H211.2V220.8H201.6V230.4H182.4V220.8H192V211.2H220.8V201.6H230.4V192ZM115.2 211.2H124.8V220.8H115.2V211.2ZM76.8 230.4H86.4V240H76.8V230.4ZM96 230.4H105.6V240H96V230.4ZM153.6 230.4H172.8V240H153.6V230.4ZM201.6 230.4H211.2V240H201.6V230.4Z" fill="#464646"/>
</svg>
